<?xml version="1.0" encoding="UTF-8"?>
<svg id="_图层_2" data-name="图层_2" xmlns="http://www.w3.org/2000/svg" viewBox="0 0 926.86 128.97">
  <g id="Default">
    <g>
      <rect x="307.59" width="26.04" height="127.33"/>
      <path d="M885.22,30.61c-23,0-41.64,18.64-41.64,41.64v52.52h26.04v-48.26c0-3.17-.23-6.26.87-9.4,2.19-6.27,8.09-10.46,14.73-10.46s12.53,4.18,14.73,10.45c1.1,3.14.87,6.23.87,9.4v48.26h26.04v-52.52c0-23-18.64-41.64-41.64-41.64Z"/>
      <path d="M65.17,63.91c2.69,2.71,4.46,5.64,5.6,9.28h26.61c-3.59-25.44-26.25-43.77-51.88-41.97C19.87,33.03,0,54.35,0,80.04s19.87,47.01,45.5,48.81c25.63,1.8,48.28-16.53,51.88-41.97h-26.61c-6.93,22.12-38.58,21.1-44.07-1.42-5.49-22.52,22.14-38,38.47-21.55Z"/>
      <path d="M197.81,31.11c-27.02.05-48.89,22-48.83,49.02.05,27.02,22,48.89,49.02,48.83,27.02-.05,48.89-22,48.83-49.02-.05-27.02-22-48.89-49.02-48.83ZM214.03,96.28c-8.97,8.91-23.46,8.85-32.36-.11-8.91-8.97-8.85-23.46.11-32.36,8.97-8.91,23.46-8.85,32.36.11,8.91,8.97,8.85,23.46-.11,32.36Z"/>
      <path d="M443.65,31.11c-27.02.05-48.89,22-48.83,49.02.05,27.02,22,48.89,49.02,48.83,27.02-.05,48.89-22,48.83-49.02-.05-27.02-22-48.89-49.02-48.83ZM459.87,96.28c-8.97,8.91-23.46,8.85-32.36-.11-8.91-8.97-8.85-23.46.11-32.36,8.97-8.91,23.46-8.85,32.36.11,8.91,8.97,8.85,23.46-.11,32.36Z"/>
      <path d="M592.63,31.11c-27.02.05-48.89,22-48.83,49.02.05,27.02,22,48.89,49.02,48.83,27.02-.05,48.89-22,48.83-49.02-.05-27.02-22-48.89-49.02-48.83ZM608.85,96.28c-8.97,8.91-23.46,8.85-32.36-.11-8.91-8.97-8.85-23.46.11-32.36,8.97-8.91,23.46-8.85,32.36.11,8.91,8.97,8.85,23.46-.11,32.36Z"/>
      <path d="M741.61,31.11c-27.02.05-48.89,22-48.83,49.02.05,27.02,22,48.89,49.02,48.83,27.02-.05,48.89-22,48.83-49.02-.05-27.02-22-48.89-49.02-48.83ZM757.83,96.28c-8.97,8.91-23.46,8.85-32.36-.11-8.91-8.97-8.85-23.46.11-32.36,8.97-8.91,23.46-8.85,32.36.11,8.91,8.97,8.85,23.46-.11,32.36Z"/>
    </g>
  </g>
</svg>